# xmcd
#
# Track frame offsets: 
#        150
#        20090
#        51971
#        69379
#        89596
#        110335
#        133794
#        150122
#        166801
#        182899
#
# Disc length: 2709 seconds
#
# Revision: 0
# Processed by: cddbd v1.5.2PL0 Copyright (c) Steve Scherf et al.
# Submitted via: ExactAudioCopy v1.3
#
DISCID=7f0a930a
DTITLE=Chanson - Chanson '78
DYEAR=1978
DGENRE=Soul
TTITLE0=Don't Hold Back
TTITLE1=I Can Tell (Feat. Linda Evans)
TTITLE2=I Love You More
TTITLE3=Why
TTITLE4=Did You Ever
TTITLE5=All The Time You Need
TTITLE6=Don't Hold Back (7'' Version)
TTITLE7=08 Did You Ever (7'' Version)
TTITLE8=I Can Tell (7'' Version) (Feat. Linda Evans)
TTITLE9=All The Time You Need (7'' Version)
EXTD=
EXTT0=
EXTT1=
EXTT2=
EXTT3=
EXTT4=
EXTT5=
EXTT6=
EXTT7=
EXTT8=
EXTT9=
PLAYORDER=
